:SAMPLES-PER-SECOND 30
:FULLY-SPECIFIED
:DEGREES
346
root  17.8305 34.4342 11.2007 -179.737 0.957565 172.75
RightUpLeg  -24.9106 -10.551 -28.3988
RightLeg  45.4637 -0.318031 -0.659841
RightFoot  -13.7571 0.605913 32.4729
RightToes  -1.74624e-010 0 -3.6325e-017
Spine  17.8661 -1.09224 10.2345
Spine1  19.3533 -0.906961 3.83403
HEad  -18.4055 9.92116 -19.5205
LeftShoulder1  1.38898 -2.51095 -16.3604
LeftArm  16.5025 16.477 -66.0375
LeftForeArm  36.038 -74.7251 -42.2467
LeftHand  -2.57571 -4.80929 29.0339
RightShoulder  0.23784 -2.12188 10.1206
RightArm  -29.3895 9.75968 32.6566
RightForeArm  129.937 67.3589 151.861
RightHand  -1.88596 4.94577 -21.2378
LeftUpLeg  -25.4955 2.39176 8.30066
LeftLeg  51.5846 5.30868 7.59942
LeftFoot  -19.7945 -1.30636 -19.0889
LeftToes  3.7286e-011 -1.5702e-010 -9.70233e-012
347
root  18.4593 34.6609 11.3801 -179.318 0.12326 171.796
RightUpLeg  -25.1934 -10.4904 -28.1756
RightLeg  45.6232 -0.93991 -1.34287
RightFoot  -14.6859 0.843521 31.5635
RightToes  -1.74624e-010 0 -3.6325e-017
Spine  17.7803 -1.14685 10.1478
Spine1  19.2865 -1.43951 5.04919
HEad  -17.8245 9.78597 -19.8975
LeftShoulder1  1.33355 -2.38335 -15.8764
LeftArm  20.0215 18.7651 -65.0365
LeftForeArm  42.181 -75.8497 -46.1643
LeftHand  -2.58601 -5.10085 28.376
RightShoulder  0.226953 -2.22617 10.7524
RightArm  -27.0427 8.77112 35.3151
RightForeArm  133.837 66.518 153.36
RightHand  -1.83301 5.02614 -20.5088
LeftUpLeg  -24.24 3.05155 7.30938
LeftLeg  48.3311 7.68528 9.62101
LeftFoot  -19.2259 -1.24518 -19.5714
LeftToes  3.7286e-011 -1.5702e-010 -9.70233e-012
348
root  19.0053 34.9603 11.5075 -178.985 -0.596542 170.684
RightUpLeg  -25.2364 -10.1082 -28.2714
RightLeg  45.3654 -1.99759 -2.47651
RightFoot  -14.4892 0.754315 30.3853
RightToes  -1.74624e-010 0 -3.6325e-017
Spine  17.3122 -1.22332 9.49593
Spine1  19.56 -2.1006 6.14235
HEad  -17.6041 9.34295 -20.7746
LeftShoulder1  1.22162 -2.04195 -15.1945
LeftArm  22.3448 19.0481 -63.2547
LeftForeArm  49.9512 -77.1624 -52.2286
LeftHand  -2.49706 -5.28876 26.9806
RightShoulder  0.292898 -1.88987 11.1427
RightArm  -24.7717 6.99852 38.7685
RightForeArm  136.15 66.0024 154.216
RightHand  -1.77284 5.03319 -19.8461
LeftUpLeg  -23.0635 3.52804 6.9074
LeftLeg  44.3733 7.6165 8.33254
LeftFoot  -17.1283 -0.915456 -19.9359
LeftToes  3.7286e-011 -1.5702e-010 -9.70233e-012
349
root  19.43 35.2735 11.58 -178.638 -1.29187 169.577
RightUpLeg  -24.8351 -9.81869 -28.6203
RightLeg  44.4765 -2.89742 -3.34891
RightFoot  -13.9598 0.603065 29.9416
RightToes  -1.74624e-010 0 -3.6325e-017
Spine  16.7499 -1.34895 9.28679
Spine1  19.5146 -2.47189 6.58205
HEad  -16.8843 8.92359 -21.7141
LeftShoulder1  1.1208 -1.68812 -14.7136
LeftArm  23.026 17.6134 -61.9883
LeftForeArm  52.3685 -77.6283 -55.5468
LeftHand  -2.31804 -5.04639 25.6882
RightShoulder  0.356793 -1.57051 11.454
RightArm  -23.0929 4.66417 42.0254
RightForeArm  136.966 65.516 154.847
RightHand  -1.74339 5.0067 -19.5752
LeftUpLeg  -22.2418 4.22096 6.44253
LeftLeg  40.8529 6.79202 6.64239
LeftFoot  -14.1441 -0.41078 -20.0785
LeftToes  3.7286e-011 -1.5702e-010 -9.70233e-012
350
root  19.7299 35.5784 11.6294 -178.357 -1.69376 168.69
RightUpLeg  -24.3062 -9.57804 -28.8577
RightLeg  43.2286 -3.67251 -3.98725
RightFoot  -13.6031 0.495532 29.2187
RightToes  -1.74624e-010 0 -3.6325e-017
Spine  16.4951 -1.49945 9.71531
Spine1  18.9388 -2.37866 6.16885
HEad  -16.1226 8.80561 -22.4322
LeftShoulder1  1.07684 -1.51875 -14.5496
LeftArm  22.2871 15.7385 -61.4415
LeftForeArm  50.8288 -77.6129 -56.3587
LeftHand  -2.1404 -4.38953 25.3295
RightShoulder  0.372557 -1.51443 11.754
RightArm  -21.5666 2.37662 44.5757
RightForeArm  138.442 64.9508 155.608
RightHand  -1.74762 5.07408 -19.5001
LeftUpLeg  -21.4935 4.84158 5.90765
LeftLeg  37.9889 6.4342 5.7362
LeftFoot  -10.9138 0.142443 -20.4842
LeftToes  3.7286e-011 -1.5702e-010 -9.70233e-012
351
root  19.9277 35.8728 11.6664 -178.191 -1.63043 168.128
RightUpLeg  -23.9405 -9.24018 -28.8456
RightLeg  41.9036 -4.42289 -4.5293
RightFoot  -12.9821 0.318442 27.9077
RightToes  -1.74624e-010 0 -3.6325e-017
Spine  16.3118 -1.66218 10.2301
Spine1  18.5652 -2.14347 5.31197
HEad  -16.0928 8.99617 -22.9575
LeftShoulder1  1.04401 -1.35773 -14.5864
LeftArm  20.5429 14.4252 -61.505
LeftForeArm  50.8911 -77.7331 -57.7894
LeftHand  -2.07237 -3.87229 25.8564
RightShoulder  0.367691 -1.54254 11.7783
RightArm  -19.8422 0.925801 46.4758
RightForeArm  140.967 64.5592 156.271
RightHand  -1.73319 5.17498 -19.1665
LeftUpLeg  -20.5702 4.92116 5.52976
LeftLeg  35.4501 6.68642 5.45486
LeftFoot  -8.14972 0.63421 -20.8411
LeftToes  3.7286e-011 -1.5702e-010 -9.70233e-012
352
root  20.0466 36.1222 11.675 -178.141 -1.46164 167.858
RightUpLeg  -23.4969 -9.02589 -28.7351
RightLeg  40.5897 -4.91671 -4.78153
RightFoot  -12.0525 0.0874623 27.0477
RightToes  -1.74624e-010 0 -3.6325e-017
Spine  15.9002 -1.81004 10.3847
Spine1  18.7119 -2.10787 4.71212
HEad  -16.4764 9.27708 -23.1128
LeftShoulder1  0.989553 -1.0894 -14.6595
LeftArm  18.4547 13.7354 -62.1584
LeftForeArm  53.8977 -78.0853 -60.5425
LeftHand  -2.1278 -3.85533 26.5647
RightShoulder  0.363971 -1.53501 11.4834
RightArm  -18.0926 0.39596 47.8159
RightForeArm  142.795 64.3867 156.631
RightHand  -1.68217 5.17897 -18.6145
LeftUpLeg  -19.5857 4.44268 5.36645
LeftLeg  33.276 7.21529 5.42828
LeftFoot  -6.40469 0.952968 -21.0122
LeftToes  3.7286e-011 -1.5702e-010 -9.70233e-012
353
root  20.0991 36.2937 11.6557 -178.213 -1.62871 167.855
RightUpLeg  -22.7364 -9.23233 -28.5733
RightLeg  39.4499 -5.14501 -4.79814
RightFoot  -11.3816 -0.0687646 26.7844
RightToes  -1.74624e-010 0 -3.6325e-017
Spine  15.4735 -1.94304 10.3185
Spine1  18.8383 -2.26534 4.60396
HEad  -16.5798 9.48829 -22.7115
LeftShoulder1  0.960669 -0.9418 -14.7299
LeftArm  16.7354 13.3712 -63.0615
LeftForeArm  58.6142 -78.5276 -64.3499
LeftHand  -2.21765 -4.10228 26.9536
RightShoulder  0.352643 -1.56907 11.1933
RightArm  -16.5707 0.166056 48.6013
RightForeArm  143.021 64.1892 156.846
RightHand  -1.6594 5.14674 -18.4245
LeftUpLeg  -18.8097 3.687 5.37528
LeftLeg  31.8466 7.96859 5.6567
LeftFoot  -5.4788 1.12896 -21.1974
LeftToes  3.7286e-011 -1.5702e-010 -9.70233e-012
354
root  20.0903 36.3971 11.6264 -178.396 -2.09258 168.111
RightUpLeg  -21.8325 -9.79689 -28.2948
RightLeg  38.6374 -5.27689 -4.77907
RightFoot  -11.1196 -0.128286 26.3605
RightToes  -1.74624e-010 0 -3.6325e-017
Spine  15.2753 -2.08321 10.3457
Spine1  18.6826 -2.43147 4.66797
HEad  -16.5333 9.62366 -22.0721
LeftShoulder1  0.987033 -1.03929 -14.858
LeftArm  15.8137 13.1352 -63.683
LeftForeArm  64.3797 -78.9777 -69.3557
LeftHand  -2.24915 -4.2506 26.9181
RightShoulder  0.335839 -1.65333 11.115
RightArm  -15.323 -0.189758 49.0141
RightForeArm  142.796 63.8707 157.128
RightHand  -1.67822 5.16841 -18.5908
LeftUpLeg  -18.4408 2.84176 5.55195
LeftLeg  31.4131 8.73094 6.06313
LeftFoot  -4.87426 1.22234 -20.9256
LeftToes  3.7286e-011 -1.5702e-010 -9.70233e-012
355
root  20.0191 36.4537 11.5923 -178.65 -2.54224 168.554
RightUpLeg  -20.9804 -10.4909 -27.9846
RightLeg  38.0164 -5.13293 -4.55998
RightFoot  -10.8863 -0.179712 25.9763
RightToes  -1.74624e-010 0 -3.6325e-017
Spine  15.1456 -2.20893 10.5067
Spine1  18.673 -2.50342 4.57726
HEad  -16.7708 9.69377 -21.6877
LeftShoulder1  1.01422 -1.13689 -15.0009
LeftArm  15.808 12.7939 -64.0086
LeftForeArm  68.5351 -79.2383 -73.032
LeftHand  -2.20562 -4.22932 26.4744
RightShoulder  0.328897 -1.69504 11.1583
RightArm  -14.3217 -0.572162 49.3084
RightForeArm  143.082 63.5875 157.423
RightHand  -1.64148 5.09776 -18.3107
LeftUpLeg  -18.5118 2.06647 5.85933
LeftLeg  31.9481 8.3475 5.92287
LeftFoot  -4.94406 1.14922 -19.8407
LeftToes  3.7286e-011 -1.5702e-010 -9.70233e-012
